<svg xmlns="http://www.w3.org/2000/svg" xml:space="preserve" width="240" height="82.667" version="1.1" viewBox="0 0 2500 861" shape-rendering="geometricPrecision" text-rendering="geometricPrecision" image-rendering="optimizeQuality" fill-rule="evenodd" clip-rule="evenodd"><path d="M978 698h17v71h83v-71h17v160h-17v-74h-83v74h-17zm226 115c0-19-13-33-30-33s-30 14-30 33 13 33 30 33 30-14 30-33zm-76 0c0-30 20-48 46-48 24 0 46 18 46 48s-21 48-46 48c-24 0-46-18-46-48zm124 27v-57h-13l2-14h11v-32l16-4v37h16v14h-16v56c0 5 2 7 6 7 3 0 6-1 10-4v16c-4 2-9 3-13 3-11 0-18-6-18-21zm128-37c-3-11-12-23-28-23s-26 13-28 23h56zm-72 10c0-29 20-48 44-48s44 20 44 48v4h-74c1 16 13 29 29 29 12 0 20-4 27-13l13 8c-12 14-24 20-40 20-24 0-44-20-44-48zm117 45h16V695h-16zm43-14l10-12c4 7 14 14 26 14 11 0 16-4 16-13 0-16-44-13-44-42 0-18 13-26 29-26 10 0 22 3 29 12l-9 11c-7-7-13-9-20-9-9 0-13 4-13 11 0 16 44 11 44 42 0 16-9 28-31 28-18 0-29-8-36-17zM220-3L2 417l-2 4h76l42-82h213l42 82h76L229-2h-10zm78 276H151l74-149 73 149zM2279-3l-218 420-2 4h76l42-82h213l42 82h76L2288-2h-10zm78 276h-147l74-149 73 149zm-425-116c0-80-65-145-145-145h-211v409h70V302h107l90 119h80l-95-126c61-18 103-75 103-138zm-286-80h141c43 0 77 35 77 80s-34 80-77 80h-141V78zM490 77h157v344h70V77h157V12H490zm716 350c93 0 193-74 193-207V12h-70v191c0 132-80 158-124 158s-124-25-124-158V12h-70v208c0 133 100 207 193 207z" fill="#373435" fill-rule="nonzero" id="Layer_x0020_1"/></svg>