<svg xmlns="http://www.w3.org/2000/svg" xmlns:xlink="http://www.w3.org/1999/xlink" width="210" height="88" viewBox="0 0 210 88"><defs><clipPath id="b"><rect width="210" height="88"/></clipPath></defs><g id="a" clip-path="url(#b)"><rect width="210" height="88" fill="#fff"/><path d="M208.075,81.951h-.589c-.409,0-.486-.077-.486-.409V80.468c0-.41.128-.487.486-.487h6.192c.358,0,.46.077.46.487v1.074c0,.333-.076.409-.46.409h-.614c-.768,0-1.023.154-1.05,1V96.511h4.428c1.663,0,1.893-.128,2.2-1.433l.205-1.561c.076-.332.178-.46.563-.46h1.1c.384,0,.461.153.41.512l-.384,4.043c-.077.793-.282.844-.9.844H207.486c-.333,0-.486-.077-.486-.461V97c0-.384.153-.511.435-.511,1.3,0,1.663-.154,1.715-.972V83.154c0-.973-.256-1.2-1.075-1.2" transform="translate(-145.595 -62.742)" fill="#511a6c"/><path d="M256.571,105.355a3.539,3.539,0,0,0,3.761-3.787v-.589h-1.1c-3.07,0-4.811.64-4.811,2.585,0,1.151.563,1.791,2.15,1.791m.614-12.1c3.89,0,5.86,1.536,5.86,5.706v5.169c0,.767.256,1.126.767,1.126a4.945,4.945,0,0,0,.87-.128c.23-.026.332,0,.332.256v1.151a.512.512,0,0,1-.357.538,4.573,4.573,0,0,1-1.791.23,2.255,2.255,0,0,1-2.457-1.714,5.63,5.63,0,0,1-4.452,1.74q-4.222,0-4.223-3.685c0-3.531,2.917-4.5,7.5-4.5h1.1v-.691c0-2.226-1.177-3.122-3.147-3.122a6.015,6.015,0,0,0-2.048.333,1.686,1.686,0,0,1,.308.972,1.571,1.571,0,0,1-1.638,1.637,1.526,1.526,0,0,1-1.561-1.586c0-1.893,1.356-3.429,4.939-3.429" transform="translate(-174.976 -71.458)" fill="#511a6c"/><path d="M302.746,100.983V96.965c-.051-.639-.307-.767-1.637-.767-.358,0-.435-.154-.435-.461V94.688c0-.358.1-.461.461-.486l3.71-.2c.485,0,.614.2.614.716V104.8c.025.64.282.947.768.947a4.566,4.566,0,0,0,.87-.128c.23-.026.333,0,.333.256v1.151a.511.511,0,0,1-.358.537,4.659,4.659,0,0,1-1.791.23,2.25,2.25,0,0,1-2.431-1.612,5.518,5.518,0,0,1-4.58,1.817c-2.636,0-4.273-1.126-4.273-4.606V97.118c0-.768-.2-.921-1.638-.921-.332,0-.435-.154-.435-.461V94.688c0-.358.128-.461.486-.486l3.71-.2c.461,0,.589.2.589.716v8.521a2.207,2.207,0,0,0,2.431,2.507c2.379,0,3.608-1.765,3.608-4.759" transform="translate(-201.371 -71.947)" fill="#511a6c"/><path d="M341.025,95.708c-.333,0-.435-.153-.435-.461V94.2c0-.358.1-.461.486-.486l3.71-.2c.461,0,.589.2.589.716v2.687c.358-1.254,1.509-3.659,4.3-3.659,1.868,0,2.635,1.023,2.635,2.482a1.649,1.649,0,0,1-1.664,1.689,1.612,1.612,0,0,1-1.433-2.175c-2.457.077-3.838,3.685-3.838,6.4V104.1c0,.947.281,1.1,1.125,1.1h1.126c.41,0,.486.1.486.384v1.151c0,.333-.1.435-.486.435h-6.7c-.358,0-.46-.1-.46-.46v-1.126c0-.307.077-.384.46-.384h.589c.845,0,1.151-.205,1.151-1.1V96.63c0-.768-.2-.921-1.637-.921" transform="translate(-233.252 -71.458)" fill="#511a6c"/><path d="M382.726,105.355a3.539,3.539,0,0,0,3.762-3.787v-.589h-1.1c-3.07,0-4.81.64-4.81,2.585,0,1.151.563,1.791,2.149,1.791m.614-12.1c3.89,0,5.86,1.536,5.86,5.706v5.169c0,.767.256,1.126.768,1.126a4.951,4.951,0,0,0,.87-.128c.231-.026.332,0,.332.256v1.151a.512.512,0,0,1-.358.538,4.568,4.568,0,0,1-1.791.23,2.254,2.254,0,0,1-2.456-1.714,5.632,5.632,0,0,1-4.453,1.74q-4.221,0-4.222-3.685c0-3.531,2.917-4.5,7.5-4.5h1.1v-.691c0-2.226-1.177-3.122-3.148-3.122a6.012,6.012,0,0,0-2.047.333,1.686,1.686,0,0,1,.308.972,1.571,1.571,0,0,1-1.637,1.637,1.525,1.525,0,0,1-1.561-1.586c0-1.893,1.356-3.429,4.938-3.429" transform="translate(-257.834 -71.458)" fill="#511a6c"/><path d="M44.252,137.121h-.922c-.332,0-.435-.128-.435-.461v-1.075c0-.384.1-.46.512-.46h12.2c.922,0,1.075.051,1.151,1.2l.179,2.943c.026.486,0,.614-.46.614h-1.1c-.358,0-.512-.077-.563-.563l-.1-1.049c-.153-1.177-.691-1.2-2.789-1.2H47.886v6.6h2.84a.7.7,0,0,0,.793-.716l.077-.845c.051-.409.154-.46.537-.46h.972c.384,0,.41.1.41.486v5.041c0,.333-.026.461-.384.461h-1c-.384,0-.486-.077-.537-.435l-.077-.87a.687.687,0,0,0-.793-.716h-2.84v4.81c0,1.049.307,1.2,1.126,1.2h.563c.409,0,.461.077.461.384v1.126c0,.333-.077.461-.461.461H43.382c-.358,0-.486-.1-.486-.461v-1.126c0-.281.077-.384.486-.384h.563c.793,0,1.1-.23,1.1-1.2V138.2c0-.742-.2-1-.793-1.075" transform="translate(-37.813 -98.961)" fill="#511a6c"/><path d="M88.409,154.563a13.165,13.165,0,0,0,3.147.461c2,0,3.121-.793,3.121-2.354,0-1.535-.972-2.328-2.762-2.328-1.92,0-3.25,1.254-3.506,4.221m8.776-1.867c0,2.508-1.664,4.222-5.4,4.222a12.253,12.253,0,0,1-3.378-.486c.179,2.866,1.407,3.992,4.145,3.992a9.184,9.184,0,0,0,3.429-.64,3.974,3.974,0,0,1,.973-.384c.2,0,.256.1.256.358v1.126c0,.358-.077.512-.511.742a10.22,10.22,0,0,1-4.376.87c-4.836,0-6.781-2.789-6.781-6.908,0-4.3,2.15-7.19,6.372-7.19,3.4,0,5.27,1.586,5.27,4.3" transform="translate(-65.823 -107.677)" fill="#511a6c"/><path d="M125.622,150.853c-.333,0-.435-.153-.435-.461v-1.048c0-.358.1-.461.486-.486l3.71-.2c.461,0,.589.2.589.717v2.686c.358-1.253,1.509-3.659,4.3-3.659,1.868,0,2.635,1.023,2.635,2.482a1.649,1.649,0,0,1-1.663,1.689,1.612,1.612,0,0,1-1.433-2.175c-2.456.077-3.838,3.685-3.838,6.4v2.456c0,.947.281,1.1,1.126,1.1h1.126c.41,0,.486.1.486.384v1.152c0,.333-.1.435-.486.435h-6.7c-.358,0-.461-.1-.461-.461V160.73c0-.307.077-.384.461-.384h.589c.844,0,1.151-.2,1.151-1.1v-7.472c0-.768-.2-.922-1.638-.922" transform="translate(-91.777 -107.677)" fill="#511a6c"/><path d="M172.328,155.761v-4.094a4.412,4.412,0,0,0-2.866-.973c-2.712,0-3.787,2.457-3.787,5.4,0,2.61.869,4.529,3.07,4.529,2.124,0,3.326-1.74,3.582-4.862m0,6.192v-1.3a4.618,4.618,0,0,1-4.094,2.1c-3.173,0-5.374-1.894-5.374-6.577,0-4.734,2.253-7.625,6.091-7.625a5.644,5.644,0,0,1,3.377,1.049v-.153c0-.512.128-.717.614-.717l3.557.23c.384.025.485.1.485.461v1.075c0,.282-.152.358-.46.46h-.717c-.563.1-.742.282-.768.922v10c0,4.708-2.533,6.909-6.832,6.909-3.326,0-5.271-1.433-5.271-3.71a1.52,1.52,0,0,1,1.586-1.458,1.493,1.493,0,0,1,1.587,1.484,1.444,1.444,0,0,1-.461,1.075,6.139,6.139,0,0,0,2.534.512c2.609,0,4.145-1.331,4.145-4.734" transform="translate(-116.604 -107.774)" fill="#511a6c"/><path d="M216.78,156.127v-4.017c-.051-.639-.307-.768-1.637-.768-.358,0-.435-.153-.435-.461v-1.049c0-.358.1-.461.46-.486l3.71-.2c.486,0,.614.2.614.717v10.081c.026.64.282.947.767.947a4.553,4.553,0,0,0,.87-.128c.23-.025.333,0,.333.256v1.151a.512.512,0,0,1-.358.537,4.653,4.653,0,0,1-1.792.231,2.25,2.25,0,0,1-2.43-1.612,5.519,5.519,0,0,1-4.58,1.817c-2.636,0-4.274-1.126-4.274-4.606v-6.269c0-.767-.2-.921-1.637-.921-.333,0-.435-.153-.435-.461v-1.049c0-.358.127-.461.486-.486l3.709-.2c.461,0,.589.2.589.717v8.521a2.206,2.206,0,0,0,2.43,2.507c2.38,0,3.608-1.765,3.608-4.759" transform="translate(-144.91 -108.165)" fill="#511a6c"/><path d="M264.271,153.156a1.464,1.464,0,0,1-1.561-1.561,1.786,1.786,0,0,1,.256-.972,5.022,5.022,0,0,0-2.1-.409c-1.765,0-2.508.742-2.508,1.765,0,3.224,7.7,1.075,7.7,6.474,0,2.814-1.842,4.2-5.4,4.2-3.121,0-5.348-1.075-5.348-3.3a1.546,1.546,0,0,1,1.586-1.689,1.425,1.425,0,0,1,1.51,1.561,1.652,1.652,0,0,1-.358,1.075,5.46,5.46,0,0,0,2.558.537c1.791,0,2.891-.589,2.891-2.047,0-3.326-7.676-1.1-7.676-6.5,0-2.482,1.637-3.889,4.938-3.889s5.015,1.151,5.015,3.147a1.535,1.535,0,0,1-1.509,1.612" transform="translate(-177.328 -107.677)" fill="#511a6c"/><path d="M301.177,153.156a1.464,1.464,0,0,1-1.56-1.561,1.788,1.788,0,0,1,.255-.972,5.018,5.018,0,0,0-2.1-.409c-1.766,0-2.508.742-2.508,1.765,0,3.224,7.7,1.075,7.7,6.474,0,2.814-1.842,4.2-5.4,4.2-3.121,0-5.348-1.075-5.348-3.3a1.546,1.546,0,0,1,1.587-1.689,1.425,1.425,0,0,1,1.51,1.561,1.647,1.647,0,0,1-.359,1.075,5.464,5.464,0,0,0,2.559.537c1.791,0,2.892-.589,2.892-2.047,0-3.326-7.676-1.1-7.676-6.5,0-2.482,1.638-3.889,4.938-3.889s5.015,1.151,5.015,3.147a1.536,1.536,0,0,1-1.51,1.612" transform="translate(-201.567 -107.677)" fill="#511a6c"/><path d="M331.819,155.535c0,3.121,1.049,5.168,3.608,5.168,2.584,0,3.633-2.047,3.633-5.168,0-3.148-1.049-5.194-3.633-5.194-2.558,0-3.608,2.047-3.608,5.194m3.608-7.139c4.657,0,6.5,3.2,6.5,7.113,0,3.89-1.842,7.139-6.5,7.139-4.631,0-6.448-3.249-6.448-7.139,0-3.915,1.817-7.113,6.448-7.113" transform="translate(-225.71 -107.676)" fill="#511a6c"/><path d="M376.316,156.174v3.071c0,.947.281,1.1,1.126,1.1h.614c.409,0,.486.1.486.384v1.126c0,.358-.128.461-.486.461h-6.193c-.358,0-.461-.1-.461-.461v-1.126c0-.281.051-.384.461-.384h.614c.844,0,1.126-.153,1.126-1.1v-7.472c0-.768-.2-.921-1.637-.921-.333,0-.435-.153-.435-.461v-1.048c0-.358.1-.461.486-.486l3.582-.2c.46,0,.563.2.563.717v1.74c.717-1.868,2.481-2.712,4.58-2.712,2.406,0,4.171,1.254,4.171,4.478v6.4c0,.768.256,1.126.768,1.126a4.879,4.879,0,0,0,.9-.128c.2-.026.308,0,.308.256v1.151a.512.512,0,0,1-.358.537,4.563,4.563,0,0,1-1.792.231,2.306,2.306,0,0,1-2.533-2.61v-6.55c0-1.535-.665-2.61-2.379-2.61-2.328,0-3.506,2.021-3.506,5.5" transform="translate(-253.573 -107.676)" fill="#511a6c"/><path d="M228.17,218.688v-1.125c0-.282.077-.384.461-.384h.563c.743,0,1.05-.2,1.1-1V202.773h-1.868c-1.458,0-1.817.025-1.919.844l-.128,1.407c-.051.384-.153.435-.537.435H224.69c-.434,0-.434-.1-.409-.486l.179-3.429c.051-.819.18-.87.819-.87h12.871c.639,0,.793.051.844.87l.179,3.429c.025.359.025.486-.409.486h-1.151c-.384,0-.512-.077-.563-.435l-.1-1.407c-.1-.819-.486-.844-2.047-.844h-1.74v13.2c0,1.049.281,1.2,1.1,1.2h.589c.409,0,.461.077.461.384v1.125c0,.333-.1.461-.461.461H228.63c-.358,0-.461-.1-.461-.461" transform="translate(-156.939 -142.013)" fill="#00aac8"/><path d="M271.089,216.4c-.333,0-.435-.153-.435-.461v-1.049c0-.359.1-.461.486-.486l3.71-.2c.461,0,.589.2.589.716V217.6c.358-1.254,1.509-3.659,4.3-3.659,1.867,0,2.635,1.023,2.635,2.482a1.649,1.649,0,0,1-1.663,1.689,1.612,1.612,0,0,1-1.433-2.175c-2.456.077-3.838,3.685-3.838,6.4v2.457c0,.947.281,1.1,1.125,1.1h1.126c.41,0,.486.1.486.384v1.151c0,.333-.1.435-.486.435h-6.7c-.358,0-.46-.1-.46-.461v-1.126c0-.307.077-.384.46-.384h.589c.844,0,1.151-.2,1.151-1.1v-7.472c0-.768-.2-.921-1.637-.921" transform="translate(-187.318 -150.728)" fill="#00aac8"/><path d="M317.064,221.676v-4.017c-.051-.639-.308-.767-1.638-.767-.358,0-.435-.154-.435-.461v-1.049c0-.359.1-.461.461-.486l3.71-.2c.486,0,.614.2.614.716v10.081c.026.64.282.947.767.947a4.546,4.546,0,0,0,.87-.128c.23-.025.333,0,.333.256v1.151a.511.511,0,0,1-.358.537,4.657,4.657,0,0,1-1.792.231,2.25,2.25,0,0,1-2.43-1.612,5.519,5.519,0,0,1-4.58,1.817c-2.636,0-4.274-1.126-4.274-4.606v-6.269c0-.767-.2-.921-1.637-.921-.332,0-.435-.154-.435-.461v-1.049c0-.359.128-.461.486-.486l3.71-.2c.461,0,.589.2.589.716v8.521a2.206,2.206,0,0,0,2.43,2.507c2.38,0,3.608-1.765,3.608-4.759" transform="translate(-210.775 -151.218)" fill="#00aac8"/><path d="M364.554,218.7a1.464,1.464,0,0,1-1.561-1.561,1.78,1.78,0,0,1,.256-.972,5.022,5.022,0,0,0-2.1-.409c-1.766,0-2.508.742-2.508,1.766,0,3.224,7.7,1.075,7.7,6.474,0,2.814-1.842,4.2-5.4,4.2-3.122,0-5.348-1.075-5.348-3.3a1.546,1.546,0,0,1,1.587-1.689,1.425,1.425,0,0,1,1.51,1.561,1.647,1.647,0,0,1-.358,1.075,5.456,5.456,0,0,0,2.558.537c1.792,0,2.892-.589,2.892-2.047,0-3.326-7.676-1.1-7.676-6.5,0-2.482,1.637-3.889,4.938-3.889s5.015,1.151,5.015,3.147a1.535,1.535,0,0,1-1.509,1.612" transform="translate(-243.193 -150.728)" fill="#00aac8"/><path d="M392.587,208.115l1.1-3.377c.1-.358.384-.409.922-.409.665,0,.69.051.69.409v3.377h3.071c.435,0,.563.051.563.384v1.228c0,.307-.128.461-.537.461h-3.1v6.832c0,2.252.691,2.585,2,2.585a4.36,4.36,0,0,0,1.637-.256c.281-.128.41-.051.41.307v1.126a.55.55,0,0,1-.41.589,7.133,7.133,0,0,1-2.328.333c-2.175,0-4.017-.716-4.017-4.017v-7.5h-1.433c-.461,0-.589-.051-.589-.512v-1c0-.41.1-.563.461-.563Z" transform="translate(-266.159 -144.412)" fill="#00aac8"/><path d="M451.279,108.915c0-1.175.532-2.128,1.189-2.128s1.19.953,1.19,2.128-.533,2.129-1.19,2.129-1.189-.953-1.189-2.129m-17.21-30.177v65.717l22.086-7.569V83.159Z" transform="translate(-294.732 -61.925)" fill="#511a6c"/><path d="M538.548,236.883a22.646,22.646,0,0,0-5.067-8.306,23.605,23.605,0,0,0-3.815-3.194V240.77a38.9,38.9,0,0,0,9.265-2.691q-.173-.59-.383-1.2" transform="translate(-357.52 -158.241)" fill="#4a55a5"/><path d="M529.667,143.858V166a25.883,25.883,0,0,1,5.224,4.176,24.553,24.553,0,0,1,5.482,9.039q.164.474.305.939a39.14,39.14,0,0,0,5.182-3.06,14.851,14.851,0,0,1-3.927-3.259,9.609,9.609,0,0,1-1.969-3.944c-.613-2.658-.092-5.7,1.595-9.311A66.439,66.439,0,0,1,546.71,152a18.283,18.283,0,0,1-4.521-5.4,17.58,17.58,0,0,1-2.126-6.339,14.407,14.407,0,0,1-.1-1.839,57.422,57.422,0,0,0-10.293,5.439" transform="translate(-357.52 -101.123)" fill="#00aac8"/><path d="M575.849,137.276a3.06,3.06,0,0,0-.9-2.121c-1.3-1.32-3.369-1.8-6.162-1.412a21.53,21.53,0,0,0-3.553.837,12.506,12.506,0,0,0,.063,2.3,15.725,15.725,0,0,0,1.91,5.657,16.33,16.33,0,0,0,3.915,4.719,42.87,42.87,0,0,0,4.054-6.956,7.442,7.442,0,0,0,.675-3.02" transform="translate(-380.862 -97.968)" fill="#9aca3c"/><path d="M503.866,52.415a15.66,15.66,0,0,1-3.2,2.168h9.952v15.5a21.631,21.631,0,0,0,4.43-3.506,24.182,24.182,0,0,0,4.556-6.658,26.375,26.375,0,0,0,2.206-7.347,23.43,23.43,0,0,0,.241-4.264,38.894,38.894,0,0,0-12.422-3.851,27.36,27.36,0,0,1-5.767,7.957" transform="translate(-338.475 -39.411)" fill="#ffd400"/><path d="M575.135,183.591a27.028,27.028,0,0,1-4.023-2.271,64.22,64.22,0,0,0-4.947,8.246c-1.5,3.207-1.978,5.849-1.464,8.077.554,2.4,2.263,4.4,5.224,6.119.161.093.325.184.491.274a39.245,39.245,0,0,0,12.826-17.782,40.5,40.5,0,0,1-8.105-2.662" transform="translate(-380.398 -129.3)" fill="#9aca3c"/><path d="M458.738,50.315a23.958,23.958,0,0,0,4.97-6.742q-1.576-.127-3.187-.129a39.023,39.023,0,0,0-26.653,10.473h14.973a15.326,15.326,0,0,0,9.9-3.6" transform="translate(-294.6 -38.745)" fill="#f15a22"/><path d="M542.744,62.2a28.273,28.273,0,0,1-2.365,7.877,26.088,26.088,0,0,1-4.916,7.18,23.43,23.43,0,0,1-5.8,4.363v7.616a65.123,65.123,0,0,1,6.506-3.614q2.07-.987,3.956-1.666a16.555,16.555,0,0,1,.386-1.822c.978-3.617,3.143-7.048,5.435-10.68,1.456-2.307,2.976-4.716,4.323-7.355a39.312,39.312,0,0,0-7.257-5.4,25.742,25.742,0,0,1-.274,3.5" transform="translate(-357.52 -48.766)" fill="#f7941d"/><path d="M575.657,78.52c-1.328,2.533-2.783,4.839-4.127,6.971-2.214,3.508-4.3,6.821-5.207,10.161q-.09.333-.163.661a22.077,22.077,0,0,1,2.994-.641c3.421-.469,6.038.192,7.779,1.965,1.694,1.726,1.9,4.079.631,7.193a44.853,44.853,0,0,1-4.3,7.392,25.074,25.074,0,0,0,3.758,2.123,38.832,38.832,0,0,0,7.9,2.573,39.222,39.222,0,0,0-9.267-38.4" transform="translate(-381.488 -61.782)" fill="#ffd400"/><path d="M416.139,248.985" transform="translate(-282.956 -173.742)" fill="#fff"/></g></svg>