<?xml version="1.0" encoding="UTF-8"?>
<svg width="668px" height="236px" viewBox="0 0 668 236" version="1.1" xmlns="http://www.w3.org/2000/svg" xmlns:xlink="http://www.w3.org/1999/xlink">
    <!-- Generator: Sketch 49.3 (51167) - http://www.bohemiancoding.com/sketch -->
    <title>Group</title>
    <desc>Created with Sketch.</desc>
    <defs>
        <linearGradient x1="-10.0837417%" y1="79.0935914%" x2="93.2649847%" y2="7.65878188%" id="linearGradient-1">
            <stop stop-color="#9FA617" offset="22.7%"></stop>
            <stop stop-color="#C1D82F" offset="69.94%"></stop>
        </linearGradient>
        <linearGradient x1="9.42723111%" y1="-13.7335836%" x2="106.306385%" y2="81.416419%" id="linearGradient-2">
            <stop stop-color="#00788A" offset="22.7%"></stop>
            <stop stop-color="#00B5CC" offset="69.94%"></stop>
        </linearGradient>
        <linearGradient x1="50.0001034%" y1="100%" x2="50.0001034%" y2="0.000563647022%" id="linearGradient-3">
            <stop stop-color="#FAA634" offset="30.06%"></stop>
            <stop stop-color="#B66612" offset="77.3%"></stop>
        </linearGradient>
        <linearGradient x1="110.055281%" y1="20.8696408%" x2="6.72634099%" y2="92.3420091%" id="linearGradient-4">
            <stop stop-color="#9FA617" offset="22.7%"></stop>
            <stop stop-color="#C1D82F" offset="69.94%"></stop>
        </linearGradient>
        <linearGradient x1="90.563565%" y1="113.701907%" x2="-6.30769037%" y2="18.5797975%" id="linearGradient-5">
            <stop stop-color="#00788A" offset="22.7%"></stop>
            <stop stop-color="#00B5CC" offset="69.94%"></stop>
        </linearGradient>
        <linearGradient x1="49.9962649%" y1="99.9986458%" x2="49.9962649%" y2="-0.00169275388%" id="linearGradient-6">
            <stop stop-color="#B66612" offset="22.7%"></stop>
            <stop stop-color="#FAA634" offset="69.94%"></stop>
        </linearGradient>
        <linearGradient x1="61.1962874%" y1="75.2159059%" x2="21.9168099%" y2="18.8683686%" id="linearGradient-7">
            <stop stop-color="#9FA617" offset="0%"></stop>
            <stop stop-color="#C1D82F" offset="42.33%"></stop>
        </linearGradient>
        <linearGradient x1="38.125764%" y1="86.7199399%" x2="64.7422983%" y2="-24.6588143%" id="linearGradient-8">
            <stop stop-color="#00788A" offset="0%"></stop>
            <stop stop-color="#00B5CC" offset="42.33%"></stop>
        </linearGradient>
        <linearGradient x1="100.000116%" y1="50.001181%" x2="0%" y2="50.001181%" id="linearGradient-9">
            <stop stop-color="#B66612" offset="0%"></stop>
            <stop stop-color="#FAA634" offset="42.33%"></stop>
        </linearGradient>
        <linearGradient x1="38.784329%" y1="24.7867514%" x2="78.0755124%" y2="81.1344785%" id="linearGradient-10">
            <stop stop-color="#9FA617" offset="0%"></stop>
            <stop stop-color="#C1D82F" offset="42.33%"></stop>
        </linearGradient>
        <linearGradient x1="0.000657377963%" y1="49.9984816%" x2="100.003209%" y2="49.9984816%" id="linearGradient-11">
            <stop stop-color="#B66612" offset="0%"></stop>
            <stop stop-color="#FAA634" offset="42.33%"></stop>
        </linearGradient>
        <linearGradient x1="61.8759671%" y1="13.2816674%" x2="35.3549545%" y2="124.260529%" id="linearGradient-12">
            <stop stop-color="#00788A" offset="0%"></stop>
            <stop stop-color="#00B5CC" offset="42.33%"></stop>
        </linearGradient>
    </defs>
    <g id="Page-1" stroke="none" stroke-width="1" fill="none" fill-rule="evenodd">
        <g id="Group" fill-rule="nonzero">
            <path d="M455.047,37.551 C440.708,37.551 435.621,49.137 435.621,59.056 C435.621,69.525 440.623,80.712 454.661,80.712 C468.994,80.712 474.08,69.13 474.08,59.209 C474.081,48.739 469.078,37.551 455.047,37.551 Z M454.662,73.181 C447.065,73.181 445.93,64.285 445.93,58.976 C445.93,55.717 446.585,45.08 455.048,45.08 C462.638,45.08 463.775,53.98 463.775,59.287 C463.774,62.545 463.117,73.181 454.662,73.181 Z" id="Shape" fill="#8A7967"></path>
            <path d="M411.792,25.747 L410.619,25.752 L401.215,25.752 C395.478,26.115 394.805,30.329 394.737,31.588 L394.737,79.249 L396.05,79.249 C403.73,79.249 405.198,74.906 405.44,72.593 L405.44,60.118 L411.469,60.118 C421.522,60.118 433.513,57.006 433.513,42.162 C433.513,31.27 426.203,25.747 411.792,25.747 Z M411.469,51.818 L405.44,51.818 L405.44,34.129 L411.316,34.129 C420.374,34.129 422.277,38.919 422.277,42.935 C422.277,48.666 418.44,51.818 411.469,51.818 Z" id="Shape" fill="#8A7967"></path>
            <path d="M546.025,201.516 C541.042,216.957 537.657,225.659 534.609,231.191 C533.135,233.993 530.466,232.444 529.633,230.656 C528.46,228.084 528.235,218.299 528.144,211.323 C524.523,222.054 522.297,229.277 519.802,233.764 C518.372,236.559 515.659,235.019 514.778,233.243 C512.359,227.872 513.437,198.194 511.84,198.711 C515.587,197.498 518.95,198.455 519.423,201.386 C520.656,208.722 518.544,223.058 519.816,226.864 C522.246,222.055 525.617,210.994 527.259,203.278 C527.635,201.505 528.243,197.934 528.958,197.674 C529.622,197.421 531.644,197.241 534.017,197.943 C534.859,198.131 534.829,199.834 534.788,202.156 C534.608,211.463 534.363,219.236 534.799,222.417 C537.42,217.224 542.613,202.844 544.619,192.586 C546.081,185.299 544.573,183.767 548.148,187.906 C549.181,189.062 548.364,194.363 546.025,201.516 Z" id="Shape" fill="#FAA634"></path>
            <path d="M546.762,227.546 C545.296,226.919 544.288,224.258 544.633,221.621 C544.995,218.884 548.001,207.282 547.985,205.115 C547.939,204.882 547.926,204.79 547.891,204.604 C547.819,204.478 547.787,204.099 548.655,204.188 C549.48,204.285 552.066,204.938 552.628,205.532 C553.028,205.972 553.924,206.438 553.235,208.672 C551.749,213.984 549.716,221.309 549.321,226.223 C549.176,227.997 549.342,228.634 546.762,227.546 Z M554.945,193.411 C553.047,193.325 551.657,194.903 551.246,196.492 C550.835,198.086 550.73,201.005 552.211,201.285 C553.625,201.635 555.775,199.104 555.981,197.852 C556.219,196.782 557.006,193.656 554.945,193.411 Z" id="Shape" fill="#FAA634"></path>
            <path d="M572.571,198.723 C571.717,198.922 566.717,200.374 566.717,200.374 C564.214,208.046 561.319,216.728 560.953,222.94 C560.864,224.553 561.52,225.658 558.875,224.679 C553.145,222.585 558.23,207.653 560.061,202.499 C557.664,202.864 557.035,203.3 555.22,202.709 C553.66,202.056 558.252,200.797 560.642,200.192 C562.08,195.808 563.375,192.077 563.451,191.092 C563.492,190.603 563.503,190.406 563.419,189.992 C563.341,189.579 563.613,189.611 563.981,189.67 C564.338,189.877 567.193,191.676 567.924,192.469 C568.884,193.501 567.784,196.842 567.362,198.146 C570.308,197.416 571.174,197.262 572.158,197.95 C572.437,198.223 572.805,198.766 572.571,198.723 Z" id="Shape" fill="#FAA634"></path>
            <path d="M577.353,181.497 C578.16,181.5 581.17,182.731 581.627,183.011 C582.119,183.234 582.863,183.833 582.356,186.075 C581.431,189.618 578.781,197.951 577.592,200.836 C581.06,196.075 584.167,195.011 586.162,195.61 C588.219,196.29 589.089,198.018 588.85,200.048 C588.208,205.75 585.627,212.572 585.56,216.401 C585.56,218.955 586.039,219.809 582.498,217.933 C579.105,216.116 580.807,208 581.963,203.537 C582.296,202.253 583.313,199.169 582.288,198.968 C581.285,198.868 577.479,204.191 576.24,207.761 C575.511,210.003 572.756,218.46 572.473,221.18 C572.347,221.933 571.984,222.355 571.39,222.298 C570.798,222.244 568.82,221.255 567.949,219.287 C567.108,217.264 569.342,210.276 570.294,207.311 C571.237,204.338 573.608,195.728 574.417,193.418 C575.108,191.232 576.909,183.816 576.802,182.346 C576.767,182.163 576.742,182.026 576.71,181.884 C576.676,181.699 576.577,181.387 577.353,181.497 Z" id="Shape" fill="#FAA634"></path>
            <path d="M623.014,174.353 C623.563,173.694 627.869,175.396 627.434,176.847 C626.993,188.723 621.764,213.82 605.256,218.043 C601.463,219.022 600.882,217.852 603.296,217.147 C604.946,216.667 607.81,215.037 610.891,211.043 C615.218,205.406 617.667,195.132 618.63,191.535 C616.348,196.167 611.377,204.268 606.987,205.19 C600.479,206.704 599.019,198.217 600.645,192.725 C603.484,183.526 604.035,182.913 604.665,180.596 C604.938,179.47 604.6,178.392 604.267,178.322 C603.874,178.129 604.138,177.871 604.531,177.831 C606.289,177.667 610.157,179.371 610.295,180.785 C610.203,181.481 609.907,182.514 609.735,182.989 C609.178,184.758 607.786,189.376 607.02,194.429 C606.27,199.375 607.089,202.222 609.832,199.754 C617.775,191.976 623.014,174.353 623.014,174.353 Z" id="Shape" fill="#FAA634"></path>
            <path d="M631.434,208 C619.092,207.35 627.761,179.906 642.732,183.274 C651.993,185.61 643.264,208.819 631.434,208 Z M636.738,202.569 C637.324,201.9 637.95,200.935 638.652,199.71 C639.345,198.44 639.888,197.301 640.218,196.258 C642.119,190.557 642.528,185.255 640.406,184.686 C637.538,183.955 634.559,189.422 632.637,194.065 C630.048,199.686 630.481,205.619 633.338,205.146 C634.404,204.85 635.552,203.857 636.738,202.569 Z" id="Shape" fill="#FAA634"></path>
            <path d="M667.533,180.546 C666.706,184.597 664.076,194.186 663.829,197.525 C663.749,198.266 664.436,199.748 663.8,199.702 C663.217,199.691 661.335,199.213 660.364,197.219 C659.915,196.265 659.714,194.526 659.718,192.692 C659.764,192.681 659.764,192.681 659.764,192.681 C659.793,192.627 659.785,192.579 659.785,192.579 C658.388,194.834 652.748,206.662 649.347,202.724 C645.675,198.321 649.804,187.469 649.979,182.558 C650.036,180.759 646.568,180.408 653.1,180.383 C657.882,180.38 653.192,194.834 653.592,196.192 C654.232,198.354 657.546,192.327 658.985,189.583 C660.786,186.169 661.576,182.37 662.614,178.22 C662.711,177.814 664.117,177.921 664.117,177.921 C664.163,177.91 666.878,178.051 667.229,178.738 C667.63,179.175 667.7,179.785 667.533,180.546 Z" id="Shape" fill="#FAA634"></path>
            <path d="M305.547,106.437 C283.332,106.437 275.453,124.404 275.453,139.793 C275.453,156.029 283.198,173.379 304.937,173.379 C327.171,173.379 335.058,155.419 335.058,140.04 C335.058,123.796 327.306,106.437 305.547,106.437 Z M304.938,162.21 C292.801,162.21 290.989,148.083 290.989,139.664 C290.989,134.489 292.037,117.623 305.548,117.623 C317.691,117.623 319.503,131.739 319.503,140.153 C319.502,145.328 318.456,162.21 304.938,162.21 Z" id="Shape" fill="#8A7967"></path>
            <path d="M253.382,71.181 L251.773,25.752 L243.23,25.752 C239.3,25.785 237.517,27.509 236.717,29.138 C236.712,29.147 236.703,29.151 236.697,29.159 L224.569,53.145 C223.824,51.354 210.147,25.751 210.147,25.751 L203.531,25.751 C197.645,25.802 196.593,29.649 196.412,31.271 L195.123,79.249037 L195.96,79.249 C204.042,79.264 205.223,73.878 205.384,71.898 L205.943,38.986 L217.442,60.124 C218.322,61.392 220.241,63.342 223.732,63.342 C227.585,63.342 229.711,60.983 230.611,59.641 L242.297,38.293 L243.593,79.249 L243.926,79.249 C253.826,79.269 253.372,71.176 253.372,71.176 L253.382,71.181 Z" id="Shape" fill="#8A7967"></path>
            <path d="M362.053,39.017 C357.026,39.091 355.555,41.956 355.136,43.776 C354.347,53.304 352.16,62.788 348.915,70.423 L348.792,70.714 L348.419,71.575 L348.039,70.714 L347.901,70.465 C343.832,63.003 341.314,54.841 340.089,45.219 L340.047,45.244 C340.047,45.244 340.052,45.074 340.034,44.81 C340.002,44.548 339.961,44.297 339.931,44.034 C339.592,42.243 338.242,39.094 332.962,39.016 L328.732,39.016 C330.825,55.071 334.037,68.123 342.685,79.512 L342.903,79.796 L342.685,80.087 C340.041,83.594 337.105,85.93 333.704,87.251 L333.695,87.281 C331.84,87.883 328.112,89.328 328.159,94.037 L328.192,95.889 C347.357,95.191 361.352,73.481 364.838,39.015 L362.053,39.015 L362.053,39.017 Z" id="Shape" fill="#8A7967"></path>
            <path d="M250.986,171.103 L250.993,171.051 C264.335,171.051 266.016,162.879 266.143,159.511 L266.143,158.583 C266.129,158.267 266.106,158.083 266.106,158.083 L266.143,158.104 L266.143,87.965 L258.736,87.965 C248.391,88.14 249.425,96.217 249.425,96.217 L249.393,96.198 L249.393,120.441 L212.056,120.441 L212.056,87.965 L204.598,87.965 C197.206,88.09 195.622,92.233 195.327,94.601 L195.327,171.102 L196.813,171.102 L196.82,171.05 C213.622,171.05 211.933,158.082 211.933,158.082 L212.057,158.155 L212.057,133.563 L249.394,133.563 L249.394,171.101 L250.986,171.101 L250.986,171.103 Z" id="Shape" fill="#8A7967"></path>
            <path d="M588.524,160.586 C585.891,161.342 583.088,161.853 580.413,161.853 C568.975,161.853 561.263,155.611 560.297,145.568 C560.292,145.224 560.265,145.057 560.241,144.89 C560.211,144.637 560.177,144.39 560.177,144.028 L560.177,142.987 L561.214,142.979 C574.633,142.855 588.817,139.697 600.263,134.291 C600.203,125.375 597.682,118.156 592.949,113.395 C588.524,108.939 582.276,106.681 574.379,106.681 C554.532,106.681 545.495,124.152 545.495,140.383 C545.495,160.289 557.975,173.154 577.279,173.154 C587.247,173.154 595.569,170.017 598.894,168.557 L597.272,163.993 C595.856,160.204 592.25,159.403 588.524,160.586 Z M559.816,132.431 C559.816,122.694 565.292,116.406 573.764,116.406 C582.017,116.406 586.162,122.05 586.523,127.294 L586.574,127.98 L585.961,128.294 C577.857,132.487 568.741,133.268 560.897,133.477 L559.817,133.507 L559.817,132.431 L559.816,132.431 Z" id="Shape" fill="#8A7967"></path>
            <path d="M570.191,74.412 C569.235,71.865 566.82,71.39 564.545,72.11 C562.838,72.61 561.009,72.953 559.256,72.953 C552.055,72.953 547.204,69.034 546.601,62.726 C546.592,62.517 546.58,62.399 546.562,62.283 C546.541,62.13 546.515,61.974 546.515,61.756 L546.515,61.281 L546.989,61.278 C555.642,61.208 564.782,59.165 572.121,55.669 C572.113,49.858 570.48,45.153 567.399,42.049 C564.535,39.167 560.502,37.706 555.402,37.706 C542.588,37.706 536.75,48.97 536.75,59.439 C536.75,72.265 544.8,80.559 557.249,80.559 C563.78,80.559 569.275,78.441 571.312,77.542 L570.199,74.417 L570.191,74.412 Z M546.287,54.35 C546.287,49.496 548.582,44.308 555.015,44.308 C560.142,44.308 562.739,47.815 562.977,51.076 L562.998,51.389 L562.717,51.532 C557.552,54.204 551.761,54.696 546.78,54.827 L546.287,54.838 L546.287,54.35 Z" id="Shape" fill="#8A7967"></path>
            <path d="M529.083,73.319 C529.08,73.319 529.077,73.316 529.076,73.315 C528.923,73.319 528.786,73.336 528.626,73.336 C525.188,73.336 523.448,71.488 523.448,67.845 L523.448,46.623 L532.859,46.623 L532.859,42.827 C532.781,41.974 532.259,39.944 529.152,39.866 L523.448,39.866 L523.448,28.013 L520.835,28.013 C514.504,28.106 513.822,32.623 513.758,33.9 L513.758,39.867 L506.584,39.867 L506.584,43.536 C506.629,44.318 507.054,46.619 510.478,46.619 L510.48,46.624 L513.603,46.624 L513.603,69.158 C513.603,76.509 517.653,80.559 525.006,80.559 C528.43,80.559 531.895,80.076 533.881,79.598 L533.419,76.198 C532.995,73.969 531.009,73.207 529.083,73.319 Z" id="Shape" fill="#8A7967"></path>
            <path d="M503.191,76.248 C502.789,73.978 500.784,73.207 498.84,73.319 C498.84,73.319 498.837,73.316 498.834,73.316 C498.683,73.32 498.548,73.337 498.391,73.337 C494.956,73.337 493.212,71.489 493.212,67.846 L493.212,46.624 L502.623,46.624 L502.623,42.852 C502.552,42.014 502.051,39.946 498.913,39.867 L493.212,39.867 L493.212,28.013 L490.611,28.013 C483.239,28.121 483.526,34.241 483.526,34.241 L483.523,34.24 L483.523,39.867 L476.347,39.867 L476.347,43.587 C476.41,44.417 476.89,46.619 480.239,46.619 L480.24,46.624 L483.372,46.624 L483.372,69.158 C483.372,76.509 487.419,80.559 494.768,80.559 C498.195,80.559 501.658,80.076 503.65,79.598 L503.193,76.25 L503.191,76.248 Z" id="Shape" fill="#8A7967"></path>
            <path d="M527.851,160.482 L527.841,160.481 C526.055,160.943 524.18,161.245 522.31,161.245 C514.146,161.245 505.703,153.438 505.703,140.382 C505.703,127.363 511.843,118.95 521.346,118.95 C523.244,118.95 525.216,119.275 527.214,119.904 L527.217,119.903 C530.806,121.096 534.474,120.311 536.113,116.492 L538.596,110.695 C535.254,109.023 529.007,106.679 520.263,106.679 C498.034,106.679 490.148,125.039 490.148,140.763 C490.148,160.136 502.252,173.153 520.263,173.153 C527.309,173.153 534.938,170.814 538.539,168.495 L536.752,163.833 C535.176,160.07 531.609,159.432 527.851,160.482 Z" id="Shape" fill="#8A7967"></path>
            <path d="M369.87,134.742 L364.223,132.672 C362.188,131.986 355.919,129.874 355.919,124.82 C355.919,121.22 358.543,117.376 365.905,117.376 C368.405,117.376 371.169,117.872 373.781,118.731 C376.526,119.296 379.413,118.244 380.751,115.235 L382.779,110.363 C377.564,107.886 372.305,106.679 366.741,106.679 C352.661,106.679 342.435,115.426 342.435,127.473 C342.435,135.43 346.515,140.572 355.663,144.128 L360.967,146.158 C361.287,146.278 361.631,146.405 361.988,146.537 C365.644,147.873 371.169,149.891 371.169,154.994 C371.169,160.663 365.519,162.684 360.233,162.684 C357.445,162.684 354.389,162.106 351.484,161.114 L351.464,161.12 C348.344,159.858 344.637,160.753 343.125,164.364 L341.271,168.798 C345.112,170.897 351.714,173.152 358.908,173.152 C374.695,173.152 384.9,165.173 384.9,152.83 C384.9,144.024 380.408,138.615 369.87,134.742 Z" id="Shape" fill="#8A7967"></path>
            <path d="M292.482,71.014 C292.459,70.697 292.456,70.397 292.456,70.158 L292.456,51.189 C292.456,39.457 283.286,37.706 277.813,37.706 C271.045,37.706 266.218,38.885 261.782,41.637 C261.85,41.799 261.922,41.945 261.993,42.096 L262.345,42.815 C264.466,46.683 267.365,46.605 268.939,46.192 C270.621,45.485 272.705,44.926 275.114,44.926 C282.366,44.926 283.151,49.249 283.151,51.11 L283.151,53.81 C283.151,55.753 281.466,55.753 279.971,55.753 C270.692,55.753 259.63,57.985 259.63,68.618 C259.63,75.556 264.442,80.402 271.338,80.402 C277.087,80.402 280.027,78.258 283.156,74.556 L283.803,73.793 L283.992,74.777 C284.448,77.168 285.845,80.018 289.922,80.018 C290.773,80.018 291.645,79.945 292.481,79.837 L292.481,71.014 L292.482,71.014 Z M283.07,65.842 C283.07,67.996 282.469,69.648 281.17,71.029 C279.691,72.588 277.571,73.412 275.041,73.412 C271.769,73.412 269.398,71.042 269.398,67.769 C269.398,63.741 273.026,61.43 279.356,61.43 L283.069,61.43 L283.069,65.842 L283.07,65.842 Z" id="Shape" fill="#8A7967"></path>
            <path d="M470.843,100.924 C475.614,100.924 478.697,98.013 478.697,93.51 C478.697,89.011 475.614,86.108 470.843,86.108 C466.072,86.108 462.866,89.083 462.866,93.51 C462.867,97.943 466.072,100.924 470.843,100.924 Z" id="Shape" fill="#8A7967"></path>
            <path d="M468.537,172.357 C477.234,172.357 478.116,166.435 478.184,164.624 L478.184,157.178 L478.184,142.129 L478.184,108.661 L472.883,108.661 L472.883,108.662 C464.218,108.664 463.321,114.579 463.248,116.392 L463.248,172.382 L468.533,172.382 L468.537,172.357 Z" id="Shape" fill="#8A7967"></path>
            <path d="M311.095,48.665 C312.508,47.279 314.862,46.183 317.64,46.078 C320.444,45.874 322.473,45.176 323.125,42.969 L324.376,38.616 C323.551,38.346 319.918,38.012 318.65,38.012 C318.253,38.012 317.885,38.058 317.517,38.097 L317.518,38.072 C314.176,38.29 309.929,40.834 307.917,43.921 L307.917,37.695 L305.929,37.695 C301.013,37.695 299.504,41.179 299.504,42.774 L299.504,47.312 C299.529,47.634 299.531,47.938 299.531,48.18 L299.531,79.858 L299.925,79.858 C309.911,79.858 309.354,71.785 309.354,71.785 L309.379,71.8 L309.379,54.281 C309.379,51.893 309.502,50.097 311.079,48.681 C311.084,48.677 311.09,48.672 311.095,48.667 L311.095,48.665 Z" id="Shape" fill="#8A7967"></path>
            <path d="M589.887,48.665 C591.299,47.279 593.654,46.183 596.432,46.078 C599.238,45.874 601.266,45.176 601.917,42.969 L603.169,38.616 C602.345,38.346 598.71,38.012 597.442,38.012 C597.045,38.012 596.677,38.058 596.309,38.097 L596.311,38.072 C592.969,38.29 588.722,40.834 586.709,43.921 L586.709,37.695 L584.723,37.695 C579.806,37.695 578.297,41.179 578.297,42.774 L578.297,47.312 C578.322,47.634 578.323,47.938 578.323,48.18 L578.323,79.858 L578.719,79.858 C588.704,79.858 588.147,71.785 588.147,71.785 L588.172,71.8 L588.172,54.281 C588.172,51.893 588.295,50.097 589.872,48.681 C589.877,48.677 589.883,48.672 589.888,48.667 L589.887,48.665 Z" id="Shape" fill="#8A7967"></path>
            <path d="M428.983,107.851 C426.66,107.851 424.55,108.055 422.595,108.553 C416.152,109.798 411.746,113.409 409.109,116.164 L409.109,108.723 L404.648,108.723 C394.529,109.005 395.541,116.965 395.541,116.965 L395.51,116.946 L395.51,198.365 L398.208,198.365 C407.869,197.344 409.93,191.325 410.312,187.911 L410.312,169.224 C414.423,171.424 418.327,172.67 422.523,173.039 C423.226,173.106 423.932,173.152 424.642,173.152 C444.591,173.152 451.83,152.848 451.83,139.201 C451.83,123.543 444.681,107.851 428.983,107.851 Z M421.757,163.067 C411.426,163.067 410.311,156.489 410.311,153.664 L410.311,131.688 C410.311,127.943 410.661,125.838 413.894,122.736 C416.483,120.311 419.171,119.191 422.365,119.191 C434.959,119.191 436.313,134.86 436.313,141.599 C436.313,155.038 430.875,163.067 421.757,163.067 Z" id="Shape" fill="#8A7967"></path>
            <path d="M167.789,48.124 C161.042,44.765 142.854,32.955 131.374,39.222 C120.814,44.988 127.53,51.251 119.665,71.14 C116.873,78.206 113.842,83.822 110.92,88.272 C110.934,88.271 110.947,88.269 110.961,88.268 C110.971,88.267 110.98,88.267 110.989,88.266 C107.554,93.498 104.28,97.087 101.712,99.46 C145.289,91.445 166.501,66.949 175.988,50.833 C173.204,50.243 170.315,49.382 167.789,48.124 Z" id="Shape" fill="url(#linearGradient-1)"></path>
            <path d="M174.146,143.514 C173.681,135.992 174.816,114.336 163.648,107.527 C153.375,101.265 151.308,110.212 130.152,113.346 C122.668,114.455 116.311,114.643 111.01,114.342 C111.01,114.343 111.01,114.343 111.011,114.344 C110.907,114.338 110.808,114.33 110.704,114.323 C104.584,113.95 99.896,112.927 96.599,111.902 C125.341,145.684 157.187,151.811 175.898,151.969 C175.018,149.263 174.318,146.331 174.146,143.514 Z" id="Shape" fill="url(#linearGradient-2)"></path>
            <path d="M98.843,143.529 C88.577,130.591 84.744,120.067 83.318,113.75 C68.433,155.531 79.049,186.175 88.269,202.458 C90.171,200.343 92.361,198.271 94.713,196.713 C100.995,192.55 120.317,182.705 120.63,169.628 C120.917,157.601 112.135,160.284 98.843,143.529 Z" id="Shape" fill="url(#linearGradient-3)"></path>
            <path d="M65.843,114.381 C66.022,114.108 66.2,113.846 66.379,113.582 C66.48,113.432 66.582,113.276 66.683,113.129 C67.003,112.663 67.32,112.214 67.636,111.775 C67.766,111.594 67.896,111.419 68.025,111.242 C68.252,110.933 68.477,110.633 68.701,110.338 C68.816,110.186 68.932,110.031 69.047,109.883 C69.359,109.48 69.669,109.09 69.974,108.714 C70.08,108.583 70.185,108.459 70.291,108.331 C70.52,108.054 70.747,107.784 70.972,107.521 C71.081,107.394 71.189,107.266 71.297,107.143 C71.597,106.798 71.895,106.463 72.186,106.144 C72.252,106.072 72.315,106.006 72.381,105.935 C72.623,105.673 72.861,105.419 73.096,105.175 C73.196,105.071 73.295,104.968 73.394,104.867 C73.625,104.63 73.853,104.402 74.077,104.182 C74.134,104.125 74.193,104.065 74.25,104.01 C74.518,103.75 74.776,103.505 75.031,103.268 C75.065,103.237 75.101,103.201 75.134,103.17 C31.508,111.17 10.278,135.687 0.786,151.812 C3.569,152.402 6.458,153.263 8.983,154.521 C15.729,157.88 33.917,169.691 45.398,163.423 C55.958,157.658 49.243,151.394 57.106,131.505 C59.898,124.442 62.928,118.827 65.849,114.379 C65.848,114.38 65.846,114.381 65.843,114.381 Z" id="Shape" fill="url(#linearGradient-4)"></path>
            <path d="M65.821,88.304 C72.033,88.66 76.76,89.693 80.097,90.724 C51.361,56.962 19.523,50.836 0.816,50.679 C1.697,53.385 2.395,56.318 2.569,59.133 C3.033,66.655 1.897,88.311 13.066,95.12 C23.338,101.383 25.407,92.434 46.562,89.3 C54.104,88.183 60.501,88.002 65.827,88.313 C65.825,88.31 65.823,88.307 65.821,88.304 Z" id="Shape" fill="url(#linearGradient-5)"></path>
            <path d="M77.872,59.117 C82.613,65.093 85.969,70.544 88.363,75.314 C88.37,75.3 88.376,75.286 88.383,75.272 C88.387,75.264 88.391,75.256 88.395,75.248 C91.189,80.8 92.655,85.398 93.431,88.803 C108.265,47.071 97.66,16.46 88.448,0.19 C86.545,2.306 84.354,4.378 82.003,5.936 C75.721,10.099 56.398,19.942 56.086,33.02 C55.796,45.045 64.58,42.363 77.872,59.117 Z" id="Shape" fill="url(#linearGradient-6)"></path>
            <path d="M82.861,111.06 C78.467,112.612 72.91,113.839 65.871,114.379 C65.861,114.38 65.852,114.38 65.843,114.381 C62.923,118.829 59.896,124.451 57.107,131.507 C49.244,151.396 55.959,157.66 45.399,163.425 C45.208,163.529 45.011,163.614 44.816,163.709 L44.857,163.745 L67.57,152.709 C74.768,148.974 78.302,148.543 88.451,127.375 C88.447,127.384 88.443,127.392 88.438,127.4 C84.79,120.152 83.396,114.51 82.861,111.06 Z" id="Shape" fill="url(#linearGradient-7)"></path>
            <path d="M77.207,101.381 C73.666,98.352 69.825,94.153 65.838,88.327 C65.833,88.319 65.827,88.311 65.822,88.304 C66.228,88.327 66.175,88.326 65.744,88.302 C60.448,88.002 54.093,88.193 46.622,89.3 C25.467,92.435 23.398,101.383 13.126,95.12 C12.94,95.006 12.768,94.879 12.589,94.758 L12.578,94.812 L33.492,108.964 C40.326,113.33 42.466,116.174 65.872,114.38 C65.862,114.381 65.853,114.381 65.844,114.382 C70.296,107.598 74.486,103.569 77.207,101.381 Z" id="Shape" fill="url(#linearGradient-8)"></path>
            <path d="M110.995,114.319 C111,114.327 111.005,114.334 111.011,114.342 C102.91,113.878 97.326,112.264 94.072,111.001 C93.219,115.583 91.504,121.008 88.451,127.374 C88.447,127.383 88.443,127.391 88.438,127.399 C90.831,132.152 94.186,137.585 98.902,143.528 C112.194,160.283 120.976,157.599 120.689,169.627 C120.683,169.846 120.66,170.058 120.644,170.273 L120.695,170.255 L122.494,145.067 C122.859,136.968 124.252,133.692 110.995,114.319 Z" id="Shape" fill="url(#linearGradient-9)"></path>
            <path d="M131.975,38.902 L109.263,49.937 C102.067,53.671 98.533,54.104 88.394,75.247 C92.042,82.495 93.436,88.137 93.97,91.587 C98.364,90.035 103.92,88.807 110.961,88.268 C110.971,88.267 110.98,88.267 110.989,88.266 C113.908,83.818 116.936,78.196 119.725,71.14 C127.59,51.25 120.874,44.988 131.434,39.222 C131.625,39.118 131.822,39.033 132.016,38.938 L131.975,38.902 Z" id="Shape" fill="url(#linearGradient-10)"></path>
            <path d="M56.136,32.375 L54.336,57.562 C53.972,65.662 52.579,68.938 65.819,88.29 C73.921,88.754 79.504,90.369 82.758,91.631 C83.611,87.05 85.325,81.624 88.379,75.257 C88.383,75.248 88.387,75.24 88.391,75.232 C85.998,70.48 82.643,65.047 77.927,59.104 C64.635,42.348 55.854,45.033 56.139,33.005 C56.146,32.787 56.17,32.574 56.185,32.359 L56.136,32.375 Z" id="Shape" fill="url(#linearGradient-11)"></path>
            <path d="M143.34,93.684 C136.506,89.317 134.366,86.473 110.96,88.267 C110.97,88.266 110.979,88.266 110.988,88.265 C106.535,95.049 102.346,99.077 99.626,101.265 C103.167,104.294 107.008,108.493 110.995,114.319 C111,114.327 111.005,114.334 111.011,114.342 C116.323,114.646 122.705,114.457 130.211,113.344 C151.367,110.21 153.434,101.263 163.707,107.525 C163.893,107.639 164.064,107.766 164.244,107.887 L164.254,107.834 L143.34,93.684 Z" id="Shape" fill="url(#linearGradient-12)"></path>
            <path d="M111.01,114.343 C111.005,114.335 111,114.327 110.994,114.32 C107.008,108.494 103.166,104.296 99.625,101.266 C102.345,99.078 106.535,95.05 110.987,88.266 C110.978,88.266 110.969,88.267 110.959,88.268 C103.918,88.808 98.362,90.035 93.968,91.587 C93.434,88.137 92.04,82.495 88.392,75.247 C88.388,75.255 88.384,75.263 88.38,75.271 C85.327,81.637 83.611,87.063 82.759,91.645 C79.504,90.383 73.92,88.769 65.819,88.304 C65.824,88.312 65.83,88.319 65.835,88.327 C69.822,94.153 73.663,98.352 77.204,101.381 C74.484,103.569 70.294,107.597 65.841,114.381 C65.851,114.381 65.86,114.38 65.869,114.379 C72.908,113.839 78.465,112.612 82.859,111.06 C83.393,114.51 84.787,120.152 88.436,127.4 C88.44,127.391 88.444,127.383 88.449,127.375 C91.501,121.009 93.217,115.583 94.07,111.002 C97.326,112.265 102.91,113.878 111.01,114.343 Z" id="Shape" fill="#FFFFFF"></path>
        </g>
    </g>
</svg>