<svg width="289" height="34" viewBox="0 0 289 34" version="1.1" xmlns="http://www.w3.org/2000/svg"><g id="RYDGES-MASTER-LOGO_Burgundy_RGB" stroke="none" stroke-width="1" fill="#691A24" fill-rule="evenodd"><path d="M6.255 17.092c2.206-.123 4-.735 5.38-1.839 1.595-1.252 2.392-2.9 2.392-4.942 0-1.865-.755-3.368-2.263-4.512-1.41-1.049-3.245-1.62-5.51-1.716v13.009zm-5.081 6.636V10.271c0-2-.085-3.683-.256-5.044A25.585 25.585 0 0 0 0 1h6.234c4.27 0 7.557.824 9.863 2.47 2.306 1.648 3.46 3.99 3.46 7.026 0 2.722-1.282 4.915-3.844 6.575-.811.504-1.694.954-2.647 1.348l2.412 3.471a68.473 68.473 0 0 0 3.822 4.87c1.395 1.629 3.295 3.708 5.7 6.24h-5.963c-1.721-1.39-3.73-3.384-6.029-5.984-2.297-2.6-4.256-5.085-5.877-7.454l-.876-1.286v5.452c0 2.015.086 3.704.257 5.065A25.09 25.09 0 0 0 7.43 33H.022c.426-1.416.725-2.805.896-4.166.17-1.362.256-3.063.256-5.106z" id="Fill-1"/><path d="M59.42 18.276l-4.81-8.005c-1.8-2.94-3.185-5.089-4.151-6.443C49.493 2.474 48.673 1.531 48 1h8.369c-.088.463-.05 1.03.11 1.705a8.24 8.24 0 0 0 .769 1.991l4.965 9.018-.005.007 5.256-9.025a8.07 8.07 0 0 0 .846-1.991c.197-.715.26-1.283.186-1.705H76c-.995.817-1.987 1.906-2.975 3.267s-2.23 3.363-3.723 6.004l-4.656 8.148v5.31c0 2.014.088 3.703.263 5.064.177 1.361.492 2.763.945 4.207h-7.62c.439-1.416.747-2.805.921-4.166.177-1.362.264-3.063.264-5.106v-5.452" id="Fill-2"/><path d="M110.386 29.508c4.256 0 7.678-1.076 10.265-3.226 2.586-2.152 3.879-4.983 3.879-8.496 0-3.99-1.228-7.202-3.683-9.638-2.456-2.438-5.703-3.656-9.742-3.656h-.72v25.016zm-5.187-5.78V10.271c0-2-.087-3.683-.262-5.044A25.052 25.052 0 0 0 104 1h5.82c6.189 0 11.1 1.467 14.732 4.4C128.184 8.335 130 12.3 130 17.296c0 4.82-1.69 8.642-5.067 11.466-3.378 2.826-7.951 4.238-13.72 4.238h-7.19a24.95 24.95 0 0 0 .914-4.166c.175-1.362.262-3.063.262-5.106z" id="Fill-3"/><path d="M176.441 34c-5.28 0-9.673-1.499-13.18-4.496-3.507-2.997-5.261-6.756-5.261-11.279 0-4.945 1.933-9.052 5.798-12.322C167.663 2.634 172.506 1 178.326 1c1.782 0 3.32.099 4.617.296 1.295.197 2.915.582 4.854 1.155v5.291c-1.877-1.062-3.607-1.804-5.19-2.226-1.583-.423-3.418-.634-5.502-.634-3.706 0-6.79 1.175-9.247 3.525-2.458 2.35-3.688 5.303-3.688 8.858 0 3.677 1.146 6.74 3.436 9.184 2.29 2.447 5.153 3.668 8.589 3.668h.024c2.751 0 5.353-.375 7.801-1.124v-2.227c0-2.002-.095-3.684-.284-5.046a23.335 23.335 0 0 0-1.025-4.231H191a23.545 23.545 0 0 0-1.006 4.179c-.192 1.356-.288 3.055-.288 5.098v.593c0 1.021.048 1.873.143 2.554.095.681.263 1.376.502 2.084-4.072 1.335-8.718 2.003-13.933 2.003h.023" id="Fill-4"/><path d="M221.022 33a25.08 25.08 0 0 0 .915-4.166c.173-1.362.26-3.063.26-5.106V10.271c0-2-.087-3.683-.26-5.044A25.174 25.174 0 0 0 221 1h18.824l-1.306 2.614-1.327 2.634c-1.305-.654-2.59-1.113-3.851-1.378-1.263-.266-2.786-.399-4.57-.399h-1.393v10.477h11.251l-3.135 5.187a12.125 12.125 0 0 0-3.438-1.328c-1.188-.259-2.684-.388-4.483-.388h-.195v11.068c3.076-.082 5.607-.293 7.595-.633 2.64-.45 4.983-1.218 7.028-2.308l-1.414 3.227L239.15 33h-18.127" id="Fill-5"/><path d="M286.67 7.804c-1.059-1.022-2.118-1.764-3.178-2.228-1.06-.462-2.225-.694-3.497-.694-1.483 0-2.712.405-3.689 1.215-.977.812-1.465 1.823-1.465 3.035 0 1.036.379 1.975 1.137 2.82.742.831 2.083 1.799 4.022 2.902 2.94 1.688 5.007 3.269 6.204 4.74S288 22.782 288 24.744c0 2.656-1.045 4.863-3.136 6.62-2.091 1.757-4.719 2.636-7.887 2.636-1.575 0-2.923-.103-4.044-.307-1.122-.204-2.433-.586-3.933-1.144v-5.987c1.091 1.226 2.221 2.125 3.387 2.697 1.168.572 2.448.858 3.843.858 1.758 0 3.217-.453 4.377-1.358 1.158-.907 1.738-2.04 1.738-3.403 0-1.184-.394-2.233-1.18-3.146-.773-.9-2.158-1.921-4.155-3.065-2.878-1.635-4.898-3.154-6.064-4.557-1.174-1.403-1.761-3.01-1.761-4.823 0-2.506 1.064-4.593 3.191-6.262C274.502 1.834 277.171 1 280.38 1c1.287 0 2.433.102 3.441.306 1.006.204 1.956.525 2.849.96v5.538" id="Fill-6"/></g></svg>