<?xml version="1.0" encoding="UTF-8"?>
<svg width="586px" height="260px" viewBox="0 0 586 260" version="1.1" xmlns="http://www.w3.org/2000/svg" xmlns:xlink="http://www.w3.org/1999/xlink">
    <!-- Generator: Sketch 53.2 (72643) - https://sketchapp.com -->
    <title>Group 26</title>
    <desc>Created with Sketch.</desc>
    <defs>
        <polygon id="path-1" points="0 260 585.613 260 585.613 0.129 0 0.129"></polygon>
    </defs>
    <g id="Page-1" stroke="none" stroke-width="1" fill="none" fill-rule="evenodd">
        <g id="Group-26" transform="translate(0.000000, -1.000000)">
            <polygon id="Fill-1" fill="#231F20" points="28.6056 142.6992 18.3636 164.7222 9.2596 143.3012 0.6916 143.3012 16.8236 179.7182 19.0996 179.7182 29.6766 157.6942 40.2536 179.7182 42.5286 179.7182 58.6616 143.3012 50.0926 143.3012 40.9896 164.7222 30.7476 142.6992"></polygon>
            <g id="Group-25" transform="translate(0.000000, 0.871000)">
                <path d="M88.5787,157.3584 C88.6457,154.8814 87.7087,152.8064 86.0357,151.0664 C84.4287,149.4604 82.2197,148.5224 79.5417,148.5224 C73.9857,148.5224 70.1027,152.4714 69.2327,157.3584 L88.5787,157.3584 Z M61.3337,160.3714 C61.3337,149.9954 69.2997,141.6284 79.6757,141.6284 C84.9637,141.6284 89.2477,143.7034 91.9257,146.4474 C95.0047,149.6604 96.4777,154.0784 96.4777,159.0324 C96.4777,160.0364 96.4107,161.8434 96.1427,162.9814 L69.2327,162.9814 C70.2367,168.9394 74.9897,172.0184 80.6127,172.0184 C84.2947,172.0184 88.0427,170.4124 90.9217,168.1354 L95.2057,173.1564 C90.8547,177.3064 86.1687,178.9804 80.2107,178.9804 C69.6347,178.9804 61.3337,171.2824 61.3337,160.3714 L61.3337,160.3714 Z" id="Fill-2" fill="#231F20"></path>
                <mask id="mask-2" fill="white">
                    <use xlink:href="#path-1"></use>
                </mask>
                <g id="Clip-5"></g>
                <polygon id="Fill-4" fill="#231F20" mask="url(#mask-2)" points="105.449 178.177 113.415 178.177 113.415 123.889 105.449 123.889"></polygon>
                <polygon id="Fill-6" fill="#231F20" mask="url(#mask-2)" points="124.267 178.177 132.233 178.177 132.233 123.889 124.267 123.889"></polygon>
                <path d="M143.48,178.177 L151.446,178.177 L151.446,142.431 L143.48,142.431 L143.48,178.177 Z M142.074,129.11 C142.074,126.231 144.483,123.822 147.429,123.822 C150.375,123.822 152.784,126.231 152.784,129.11 C152.784,131.988 150.375,134.332 147.429,134.332 C144.483,134.332 142.074,131.988 142.074,129.11 L142.074,129.11 Z" id="Fill-7" fill="#231F20" mask="url(#mask-2)"></path>
                <path d="M169.7872,142.4307 L169.9212,146.7147 C172.3982,143.7027 175.9462,141.6277 180.8992,141.6277 C184.9832,141.6277 188.3962,143.1667 190.5382,145.5767 C192.9492,148.2547 194.0862,152.1377 194.0862,156.2867 L194.0862,178.1767 L186.1202,178.1767 L186.1202,157.0237 C186.1202,152.4057 183.5102,148.7897 178.4902,148.7897 C173.6702,148.7897 170.5902,152.2717 170.5902,156.9567 L170.5902,178.1767 L162.6242,178.1767 L162.6242,142.4307 L169.7872,142.4307 Z" id="Fill-8" fill="#231F20" mask="url(#mask-2)"></path>
                <path d="M231.0235,159.9023 C231.0235,153.3413 226.8735,148.7233 220.5135,148.7233 C213.9535,148.7233 209.8705,153.6103 209.8705,159.9023 C209.8705,166.5293 214.2885,171.0143 220.4465,171.0143 C226.5385,171.0143 231.0235,166.6633 231.0235,159.9023 M218.9075,141.6943 C223.7945,141.6943 228.2115,143.5023 231.2915,147.6523 L231.4925,142.4303 L238.6545,142.4303 L238.6545,174.4283 C238.6545,188.1513 229.6845,192.9043 220.2465,192.9043 C214.0875,192.9043 208.5315,190.9633 203.7785,188.2173 L206.5905,181.6583 C210.3385,183.9333 215.0915,185.8083 220.0455,185.8083 C226.6055,185.8083 230.6895,182.6623 230.6895,174.8963 L230.6895,172.8213 C227.5425,176.5043 223.4595,178.1103 218.9075,178.1103 C208.3305,178.1103 201.7705,169.7423 201.7705,159.9023 C201.7705,150.3303 208.6655,141.6943 218.9075,141.6943" id="Fill-9" fill="#231F20" mask="url(#mask-2)"></path>
                <path d="M255.7217,175.7002 C253.5797,173.6922 252.3747,170.8132 252.3747,166.9982 L252.3747,149.4602 L246.4837,149.4602 L246.4837,142.4982 L248.2237,142.4302 C251.6387,142.2972 252.7767,140.9582 252.7767,137.0752 L252.7767,132.8592 L260.3407,132.8592 L260.3407,142.4302 L270.3817,142.4302 L270.3817,149.4602 L260.3407,149.4602 L260.3407,165.5922 C260.3407,169.6082 262.4157,171.5502 266.6997,171.5502 C267.9047,171.5502 269.3107,171.4832 270.5157,171.3482 L270.5157,177.8432 C268.6407,178.3782 266.6327,178.6452 264.8927,178.6452 C260.8087,178.6452 257.7967,177.6412 255.7217,175.7002" id="Fill-10" fill="#231F20" mask="url(#mask-2)"></path>
                <path d="M306.6016,160.3037 C306.6016,157.0907 305.5306,154.1457 303.4556,152.0707 C301.3796,149.9947 298.6356,148.7897 295.5566,148.7897 C292.4776,148.7897 289.7996,149.9277 287.7906,152.0027 C285.7156,154.0777 284.5786,157.0237 284.5786,160.3037 C284.5786,167.0647 288.7956,171.7507 295.5566,171.7507 C302.4516,171.7507 306.6016,166.7307 306.6016,160.3037 M282.1676,173.8257 C278.7536,170.5457 276.6126,165.8607 276.6126,160.3037 C276.6126,154.9487 278.6876,150.2627 282.1016,146.9157 C285.5156,143.5697 290.2016,141.6277 295.5566,141.6277 C300.9116,141.6277 305.5976,143.5697 309.0786,146.9157 C312.5596,150.2627 314.5676,154.9487 314.5676,160.3037 C314.5676,165.8607 312.4256,170.4787 308.9446,173.7587 C305.4636,177.0387 300.7776,178.9807 295.4896,178.9807 C290.2016,178.9807 285.5816,177.1057 282.1676,173.8257" id="Fill-11" fill="#231F20" mask="url(#mask-2)"></path>
                <path d="M328.8975,142.4307 L329.0315,146.7147 C331.5075,143.7027 335.0555,141.6277 340.0095,141.6277 C344.0925,141.6277 347.5065,143.1667 349.6495,145.5767 C352.0585,148.2547 353.1975,152.1377 353.1975,156.2867 L353.1975,178.1767 L345.2315,178.1767 L345.2315,157.0237 C345.2315,152.4057 342.6205,148.7897 337.5995,148.7897 C332.7805,148.7897 329.7015,152.2717 329.7015,156.9567 L329.7015,178.1767 L321.7355,178.1767 L321.7355,142.4307 L328.8975,142.4307 Z" id="Fill-12" fill="#231F20" mask="url(#mask-2)"></path>
                <path d="M0,228.082 C0,217.706 7.75,209.693 18.389,209.693 C25.087,209.693 29.488,212.715 32.377,216.13 L27.254,221.121 C24.89,218.625 22.395,216.721 18.389,216.721 C12.347,216.721 7.815,221.516 7.815,228.017 C7.815,234.781 12.15,239.247 18.651,239.247 C22.46,239.247 25.087,237.343 27.583,234.781 L32.64,239.707 C29.356,243.385 25.153,246.34 18.323,246.34 C8.012,246.34 0,238.919 0,228.082" id="Fill-13" fill="#231F20" mask="url(#mask-2)"></path>
                <path d="M39.424,245.551 L47.239,245.551 L47.239,210.482 L39.424,210.482 L39.424,245.551 Z M38.045,197.413 C38.045,194.589 40.41,192.225 43.299,192.225 C46.189,192.225 48.553,194.589 48.553,197.413 C48.553,200.236 46.189,202.535 43.299,202.535 C40.41,202.535 38.045,200.236 38.045,197.413 L38.045,197.413 Z" id="Fill-14" fill="#231F20" mask="url(#mask-2)"></path>
                <path d="M62.2994,243.1221 C60.1974,241.1511 59.0154,238.3281 59.0154,234.5841 L59.0154,217.3781 L53.2364,217.3781 L53.2364,210.5481 L54.9444,210.4821 C58.2934,210.3511 59.4094,209.0371 59.4094,205.2281 L59.4094,201.0911 L66.8314,201.0911 L66.8314,210.4821 L76.6814,210.4821 L76.6814,217.3781 L66.8314,217.3781 L66.8314,233.2051 C66.8314,237.1451 68.8664,239.0501 73.0704,239.0501 C74.2524,239.0501 75.6314,238.9841 76.8134,238.8531 L76.8134,245.2241 C74.9744,245.7491 73.0044,246.0121 71.2974,246.0121 C67.2904,246.0121 64.3354,245.0261 62.2994,243.1221" id="Fill-15" fill="#231F20" mask="url(#mask-2)"></path>
                <path d="M82.1954,255.5342 L85.0854,249.1642 C88.5654,251.2652 92.9004,253.0392 97.1034,253.0392 C102.4234,253.0392 106.1664,250.1482 106.1664,243.3182 L106.1664,241.2832 C103.6704,243.8442 100.3864,245.4862 96.0524,245.4862 C92.0464,245.4862 88.7624,243.9102 86.5954,241.6112 C84.2314,238.9842 83.1144,235.1762 83.1144,231.1032 L83.1144,210.4822 L90.9294,210.4822 L90.9294,230.3812 C90.9294,234.9122 93.4914,238.4592 98.4164,238.4592 C103.1454,238.4592 106.1664,235.0442 106.1664,230.4472 L106.1664,210.4822 L113.9814,210.4822 L113.9814,242.8592 C113.9814,255.1402 106.2314,260.0002 97.4974,260.0002 C92.1774,260.0002 86.7924,258.2932 82.1954,255.5342" id="Fill-16" fill="#231F20" mask="url(#mask-2)"></path>
                <path d="M175.9112,224.0762 L175.9112,245.5522 L168.0962,245.5522 L168.0962,224.7992 C168.0962,220.2672 165.6002,216.7212 160.8722,216.7212 C156.4062,216.7212 153.3192,220.1362 153.3192,224.6012 L153.3192,245.5522 L145.5042,245.5522 L145.5042,224.7992 C145.5042,220.2672 143.0742,216.7212 138.3462,216.7212 C133.7482,216.7212 130.7932,220.1362 130.7932,224.7332 L130.7932,245.5522 L122.9782,245.5522 L122.9782,210.4822 L130.0052,210.4822 L130.1372,214.6852 C132.6982,211.5332 136.5072,209.6932 140.6442,209.6932 C144.6502,209.6932 147.6712,211.2692 149.7732,213.5682 C150.2322,214.0942 150.6272,214.6192 151.0202,215.2112 C153.9102,211.5332 157.7852,209.6932 163.1042,209.6932 C166.8482,209.6932 170.2632,211.2042 172.3652,213.5032 C174.7292,216.1302 175.9112,220.0052 175.9112,224.0762" id="Fill-17" fill="#ED1C2E" mask="url(#mask-2)"></path>
                <path d="M184.472,245.551 L192.287,245.551 L192.287,210.482 L184.472,210.482 L184.472,245.551 Z M183.092,197.413 C183.092,194.589 185.457,192.225 188.346,192.225 C191.236,192.225 193.6,194.589 193.6,197.413 C193.6,200.236 191.236,202.535 188.346,202.535 C185.457,202.535 183.092,200.236 183.092,197.413 L183.092,197.413 Z" id="Fill-18" fill="#ED1C2E" mask="url(#mask-2)"></path>
                <path d="M213.2017,246.3398 C207.7507,246.3398 202.7597,244.5008 199.0157,241.4808 L202.6937,235.8318 C205.8467,238.1308 209.9837,239.5748 213.3987,239.5748 C216.4847,239.5748 218.2587,238.5248 218.2587,236.2268 C218.2587,234.4528 216.4847,233.0078 213.3987,231.6938 L209.1957,229.9218 C204.0077,227.7538 200.5267,224.6678 200.5267,219.4798 C200.5267,213.9628 205.1887,209.6938 212.6767,209.6938 C217.7327,209.6938 221.8047,211.1388 225.0227,213.7658 L221.1477,219.3478 C218.7837,217.5088 215.3687,216.3928 212.6107,216.3928 C209.7207,216.3928 208.1447,217.5738 208.1447,219.4138 C208.1447,221.2518 209.7207,222.4348 212.4137,223.5508 L216.6167,225.3238 C222.2647,227.6888 226.1397,230.5778 226.1397,235.9628 C226.1397,242.0058 220.8857,246.3398 213.2017,246.3398" id="Fill-19" fill="#ED1C2E" mask="url(#mask-2)"></path>
                <path d="M243.7041,246.3398 C238.2531,246.3398 233.2621,244.5008 229.5181,241.4808 L233.1961,235.8318 C236.3491,238.1308 240.4861,239.5748 243.9011,239.5748 C246.9881,239.5748 248.7611,238.5248 248.7611,236.2268 C248.7611,234.4528 246.9881,233.0078 243.9011,231.6938 L239.6981,229.9218 C234.5101,227.7538 231.0291,224.6678 231.0291,219.4798 C231.0291,213.9628 235.6921,209.6938 243.1791,209.6938 C248.2361,209.6938 252.3081,211.1388 255.5251,213.7658 L251.6511,219.3478 C249.2871,217.5088 245.8711,216.3928 243.1131,216.3928 C240.2241,216.3928 238.6471,217.5738 238.6471,219.4138 C238.6471,221.2518 240.2241,222.4348 242.9161,223.5508 L247.1191,225.3238 C252.7671,227.6888 256.6421,230.5778 256.6421,235.9628 C256.6421,242.0058 251.3881,246.3398 243.7041,246.3398" id="Fill-20" fill="#ED1C2E" mask="url(#mask-2)"></path>
                <path d="M263.437,245.551 L271.252,245.551 L271.252,210.482 L263.437,210.482 L263.437,245.551 Z M262.058,197.413 C262.058,194.589 264.422,192.225 267.312,192.225 C270.202,192.225 272.566,194.589 272.566,197.413 C272.566,200.236 270.202,202.535 267.312,202.535 C264.422,202.535 262.058,200.236 262.058,197.413 L262.058,197.413 Z" id="Fill-21" fill="#ED1C2E" mask="url(#mask-2)"></path>
                <path d="M307.3203,228.0166 C307.3203,224.8646 306.2693,221.9746 304.2333,219.9396 C302.1973,217.9036 299.5053,216.7206 296.4833,216.7206 C293.4633,216.7206 290.8363,217.8376 288.8653,219.8726 C286.8303,221.9096 285.7133,224.7986 285.7133,228.0166 C285.7133,234.6506 289.8503,239.2466 296.4833,239.2466 C303.2483,239.2466 307.3203,234.3216 307.3203,228.0166 M283.3483,241.2836 C280.0003,238.0646 277.8983,233.4676 277.8983,228.0166 C277.8983,222.7626 279.9333,218.1656 283.2833,214.8816 C286.6333,211.5986 291.2293,209.6936 296.4833,209.6936 C301.7373,209.6936 306.3353,211.5986 309.7503,214.8816 C313.1653,218.1656 315.1343,222.7626 315.1343,228.0166 C315.1343,233.4676 313.0333,237.9986 309.6183,241.2166 C306.2033,244.4356 301.6063,246.3396 296.4183,246.3396 C291.2293,246.3396 286.6983,244.5006 283.3483,241.2836" id="Fill-22" fill="#ED1C2E" mask="url(#mask-2)"></path>
                <path d="M329.3721,210.4824 L329.5041,214.6854 C331.9341,211.7294 335.4141,209.6934 340.2741,209.6934 C344.2801,209.6934 347.6301,211.2044 349.7311,213.5684 C352.0961,216.1954 353.2121,220.0044 353.2121,224.0764 L353.2121,245.5514 L345.3961,245.5514 L345.3961,224.7984 C345.3961,220.2674 342.8351,216.7204 337.9101,216.7204 C333.1821,216.7204 330.1601,220.1354 330.1601,224.7334 L330.1601,245.5514 L322.3451,245.5514 L322.3451,210.4824 L329.3721,210.4824 Z" id="Fill-23" fill="#ED1C2E" mask="url(#mask-2)"></path>
                <path d="M474.8018,119.3916 C477.7708,120.0486 476.3788,123.0896 474.5838,127.3046 C468.9078,140.6336 426.0008,234.5466 426.0008,234.5466 C426.0008,234.5466 423.6558,239.1666 426.1878,240.5426 C427.5078,241.2606 428.6098,240.4746 430.4968,237.2496 C442.9778,215.9246 482.0048,125.1976 483.0348,123.3456 C485.2418,119.3746 488.2258,116.7276 504.4088,113.2596 C520.5928,109.7916 562.0958,101.4976 562.0958,101.4976 C562.0958,101.4976 567.2148,100.1766 569.1968,98.6906 C571.1778,97.2046 571.3428,95.3876 576.7918,94.5616 C582.2418,93.7356 585.8208,91.9746 585.4348,89.0576 C585.0568,86.1986 582.3048,85.3346 575.8018,86.6356 C563.9668,89.0016 499.9478,96.6536 499.9478,96.6536 C499.9478,96.6536 495.9898,96.7466 495.7098,94.5616 C495.4348,92.4146 497.3068,91.3696 501.7648,90.7086 C506.2238,90.0476 551.1968,82.5066 554.6638,82.0116 C558.1318,81.5166 559.5038,79.3716 559.3698,77.6766 C559.1228,74.5386 557.2648,73.3416 552.9718,73.7956 C550.4588,74.0616 548.5538,71.1126 555.3238,70.1216 C562.0958,69.1306 573.4488,66.8596 575.8018,66.4056 C578.1558,65.9516 581.0448,64.5066 580.4258,60.7086 C579.9408,57.7346 577.3658,58.0206 575.4718,58.2316 C572.8698,58.5206 570.9128,58.4216 570.5998,56.2906 C570.3938,54.8876 571.6318,54.0206 574.9758,53.2776 C579.2438,52.3286 588.5178,51.7906 584.7188,48.3236 C580.9208,44.8556 581.0858,44.8556 570.5178,47.0026 C559.9488,49.1486 530.5538,55.9196 530.5538,55.9196 C530.5538,55.9196 518.6638,59.2226 521.9668,53.1126 C525.2698,47.0026 539.8018,25.0386 539.8018,25.0386 C539.8018,25.0386 543.2698,19.9196 539.4718,18.2686 C535.6728,16.6176 533.2958,21.4466 532.3338,22.8006 C532.0318,23.2266 507.9308,55.7546 507.9308,55.7546 C507.9308,55.7546 504.4228,60.6346 501.3658,60.5896 C497.9808,60.5396 496.5358,58.0666 499.8388,53.1126 C503.1418,48.1586 529.8518,9.1986 530.8408,7.8146 C531.8288,6.4316 534.1988,1.6876 530.6918,0.3956 C526.1728,-1.2674 522.9578,5.3876 522.9578,5.3876 L506.6098,31.9746 C506.6098,31.9746 503.6068,36.9906 500.8288,35.2776 C497.6868,33.3386 501.8208,27.6816 501.8208,27.6816 L509.5818,17.1126 C509.5818,17.1126 513.2658,12.3456 508.2608,9.8466 C504.2608,7.8496 500.7188,15.4326 499.2248,18.1206 C497.7318,20.8086 471.1048,64.0116 471.1048,64.0116 C471.1048,64.0116 469.0718,68.0096 466.2998,66.5866 C463.9268,65.3676 466.1508,61.3696 466.1508,61.3696 L485.8018,19.7546 C485.8018,19.7546 488.6918,14.5526 484.8108,12.6536 C481.7218,11.1416 478.7008,16.7826 478.7008,16.7826 C478.7008,16.7826 480.1558,11.1506 475.1778,10.5036 C471.8018,10.0646 470.7748,13.8096 469.2878,17.4426 C467.8018,21.0756 450.2748,71.3086 449.6368,72.9286 C448.5718,75.6376 445.4108,78.6846 440.4288,80.7866 C432.2898,84.2196 390.0228,102.1586 390.0228,102.1586 C390.0228,102.1586 378.2978,106.2866 383.2518,114.2126 C383.2518,114.2126 379.1048,115.8986 379.3108,120.0576 C379.5408,124.7126 383.9738,125.5536 386.8898,124.7126 C392.8688,122.9866 421.7288,114.9146 424.4528,114.1716 C426.0678,113.7316 430.6458,112.2316 429.4898,114.8736 C428.3338,117.5156 427.1778,119.9926 427.1778,119.9926 L410.8288,124.6166 C410.8288,124.6166 404.4718,125.9786 404.3888,129.2406 C404.2838,133.3676 407.4448,133.5756 411.3248,132.8736 C415.0308,132.2036 425.0518,130.4386 425.8988,130.3136 C427.3018,130.1076 429.7798,128.8696 428.0038,134.1946 C425.9718,140.2906 392.9948,242.0296 392.9948,242.0296 C392.9948,242.0296 391.3128,247.8676 394.8118,247.9326 C399.1878,248.0156 400.4258,242.5246 400.4258,242.5246 C400.4258,242.5246 433.3858,137.4026 433.5788,136.8396 C433.8898,135.9376 434.6678,132.8536 435.9898,133.3476 C437.1778,133.7896 436.7528,135.9346 435.7658,139.3136 C434.8698,142.3746 409.5538,232.8566 409.3428,233.6076 C409.1328,234.3586 407.6878,239.1036 410.7998,239.4636 C413.7068,239.8006 416.2798,234.2676 416.2798,234.2676 L470.9398,121.6436 C470.9398,121.6436 472.2188,118.8206 474.8018,119.3916" id="Fill-24" fill="#ED1C2E" mask="url(#mask-2)"></path>
            </g>
        </g>
    </g>
</svg>